<?xml version="1.0" encoding="utf-8"?>
<!-- Generator: Adobe Illustrator 23.0.1, SVG Export Plug-In . SVG Version: 6.00 Build 0)  -->
<svg version="1.1" id="Layer_1" xmlns="http://www.w3.org/2000/svg" xmlns:xlink="http://www.w3.org/1999/xlink" x="0px" y="0px"
	 viewBox="0 0 1000 1000" style="enable-background:new 0 0 1000 1000;" xml:space="preserve">
<style type="text/css">
	.st0{fill:#48C5E0;}
	.st1{fill:#003F55;}
	.st2{fill:#FFFFFF;}
</style>
<g>
	<polygon class="st0" points="944.7,403.1 901,403.1 957.1,500 901,596.9 944.7,596.9 1000.8,500 	"/>
	<polygon class="st0" points="55.3,403.1 99,403.1 42.9,500 99,596.9 55.3,596.9 -0.8,500 	"/>
	<polygon class="st1" points="82.8,596.9 26.8,500 82.8,403.1 917.2,403.1 973.2,500 917.2,596.9 	"/>
	<g>
		<path class="st2" d="M139.9,558.9h-35.2V441.1h37.1c34.2,0,58.9,16.2,58.9,58.9C199.7,541.8,169.3,558.9,139.9,558.9z
			 M140.8,463.9h-12.4v72.2h11.4c24.7,0,36.1-14.3,36.1-36.1C176,476.2,165.5,463.9,140.8,463.9z"/>
		<path class="st2" d="M227.3,558.9V441.1H309v22.8h-58.9v20h34.2v22.8h-34.2v28.5h60.8V558L227.3,558.9L227.3,558.9z"/>
		<path class="st2" d="M394.5,558.9h-22.8l-41.8-117.8h26.6l21.9,68.4c1.9,6.7,4.8,15.2,5.7,19c1-4.8,2.9-12.4,5.7-19l21.9-68.4
			h25.7L394.5,558.9z"/>
		<path class="st2" d="M511.4,517.1h-25.7v41.8H462V441.1h51.3c21.9,0,40.9,12.4,40.9,37.1C554.2,505.7,536.1,517.1,511.4,517.1z
			 M513.3,463.9h-27.6v30.4h27.6c11.4,0,17.1-4.8,17.1-15.2C530.4,468.6,522.8,463.9,513.3,463.9z"/>
		<path class="st2" d="M625.4,560.8c-32.3,0-51.3-24.7-51.3-60.8s19-60.8,51.3-60.8c32.3,0,51.3,24.7,51.3,60.8
			S657.7,560.8,625.4,560.8z M625.4,462.9c-19,0-26.6,16.2-26.6,37.1s7.6,37.1,26.6,37.1c19,0,26.6-16.2,26.6-37.1
			C652,479.1,644.4,462.9,625.4,462.9z"/>
		<path class="st2" d="M741.4,560.8c-20,0-37.1-8.6-45.6-21.9l17.1-15.2c8.6,9.5,19,13.3,30.4,13.3c14.3,0,20.9-3.8,20.9-13.3
			c0-7.6-3.8-11.4-26.6-16.2c-21.9-4.8-37.1-12.4-37.1-35.2c0-21.9,19-34.2,41.8-34.2c18.1,0,32.3,6.7,42.8,19L768,473.4
			c-7.6-7.6-16.2-12.4-26.6-12.4c-12.4,0-17.1,5.7-17.1,10.5c0,7.6,4.8,9.5,23.8,14.3s39,10.5,39,36.1
			C787.9,545.6,773.7,560.8,741.4,560.8z"/>
		<path class="st2" d="M862,463.9v95h-23.8v-95h-34.2v-22.8h91.2v22.8H862z"/>
	</g>
</g>
</svg>
